<?xml version="1.0" encoding="utf-8" standalone="yes"?>
<svg xmlns="http://www.w3.org/2000/svg" version="1.1" width="816"
     height="1056"><!--Generated by Aspose.Words for .NET 25.7.0-->
    <defs>
        <clipPath id="clip001">
            <path d="M0,0 L0,0 L0,0 L0,0 Z" clip-rule="evenodd"/>
        </clipPath>
        <clipPath id="clip002">
            <path d="M0,0 L599.925,0 L599.925,599.925 L0,599.925 Z" clip-rule="evenodd"/>
        </clipPath>
        <clipPath id="clip003">
            <path d="M0,0 L599.9999,0 L599.9999,599.9999 L0,599.9999 Z" clip-rule="evenodd"/>
        </clipPath>
    </defs>
    <clipPath id="page-clip-path-1">
        <rect x="0" y="0" width="816" height="1056"/>
    </clipPath>
    <g clip-path="url(#page-clip-path-1)">
        <g>
            <path d="M0,0 L816,0 L816,1056 L0,1056 Z" fill="#fafafa" fill-rule="evenodd"/>
        </g>
        <g transform="translate(96,96)">
            <path d="M-1.933333,0 L625.9333,0 L625.9333,599.8666 L-1.933333,599.8666 Z" fill="#ffffff"
                  fill-rule="evenodd"/>
            <g transform="translate(0,599.8666)">
                <g clip-path="url(#clip001)">
                    <g id="__TIMER_INJECTION_FLAG__dkdhhcbjijekmnee"/>
                </g>
            </g>
        </g>
        <g transform="translate(96,96)">
            <g>
                <g clip-path="url(#clip002)">
                    <g transform="">
                        <g>
                            <g transform="matrix(0.9998834,0,0,0.9998834,0,0)" clip-path="url(#clip003)">
                                <path d="M107.7401,206.076 L107.7401,206.076 L110.2584,205.3604 L112.7887,204.6889 L115.3304,204.0616 L117.8827,203.4787 L120.4447,202.9405 L123.0157,202.4471 L125.595,201.9987 L128.1817,201.5953 L130.7751,201.2371 L133.3743,200.9242 L135.9785,200.6568 L138.5871,200.4348 L141.1991,200.2584 L143.8138,200.1276 L146.4303,200.0425 L149.048,200.003 L150,200 L150,250 L150,250 L149.3653,250.002 L147.6202,250.0283 L145.8758,250.0851 L144.1327,250.1723 L142.3914,250.2899 L140.6523,250.4378 L138.9162,250.6161 L137.1834,250.8247 L135.4545,251.0635 L133.73,251.3324 L132.0105,251.6314 L130.2965,251.9603 L128.5885,252.3191 L126.8869,252.7077 L125.1925,253.1259 L123.5056,253.5736 L121.8267,254.0507 Z"
                                      fill="#e0e0e0" fill-rule="nonzero"/>
                                <path d="M107.7401,206.076 L107.7401,206.076 L110.2584,205.3604 L112.7887,204.6889 L115.3304,204.0616 L117.8827,203.4787 L120.4447,202.9405 L123.0157,202.4471 L125.595,201.9987 L128.1817,201.5953 L130.7751,201.2371 L133.3743,200.9242 L135.9785,200.6568 L138.5871,200.4348 L141.1991,200.2584 L143.8138,200.1276 L146.4303,200.0425 L149.048,200.003 L150,200 L150,250 L150,250 L149.3653,250.002 L147.6202,250.0283 L145.8758,250.0851 L144.1327,250.1723 L142.3914,250.2899 L140.6523,250.4378 L138.9162,250.6161 L137.1834,250.8247 L135.4545,251.0635 L133.73,251.3324 L132.0105,251.6314 L130.2965,251.9603 L128.5885,252.3191 L126.8869,252.7077 L125.1925,253.1259 L123.5056,253.5736 L121.8267,254.0507 Z"
                                      stroke-width="2" stroke-miterlimit="13.33333" stroke="#ffffff" fill="none"
                                      fill-rule="nonzero"/>
                                <g>
                                    <text>
                                        <tspan x="116.1999" y="226.2723" font-family="Arial Unicode MS"
                                               font-weight="normal" font-style="normal" font-size="12" fill="#333333">￥
                                        </tspan>
                                        <tspan x="128.1999" y="226.2723" font-family="Arial" font-weight="normal"
                                               font-style="normal" font-size="12" fill="#333333">104
                                        </tspan>
                                    </text>
                                </g>
                                <path d="M128.6528,201.5267 L121.0247,148.4723 " stroke-width="2"
                                      stroke-miterlimit="13.33333" stroke="#666666" fill="none" fill-rule="evenodd"/>
                                <g transform="matrix(-0.2846299,-1.979643,1.979643,-0.2846299,117.9193,154.9805)">
                                    <g>
                                        <path d="M0,0 L4,2 L0,4 Z" fill="#666666" fill-rule="nonzero"/>
                                    </g>
                                </g>
                                <path d="M127.8862,140.5538 C127.8862,144.9424 124.2748,148.5538 119.8862,148.5538 L119.8862,148.5538 C115.4975,148.5538 111.8862,144.9424 111.8862,140.5538 L111.8862,140.5538 C111.8862,136.1651 115.4975,132.5538 119.8862,132.5538 L119.8862,132.5538 C124.2748,132.5538 127.8862,136.1651 127.8862,140.5538 "
                                      fill="#87cefa" fill-rule="nonzero"/>
                                <path d="M127.8862,140.5538 C127.8862,144.9424 124.2748,148.5538 119.8862,148.5538 L119.8862,148.5538 C115.4975,148.5538 111.8862,144.9424 111.8862,140.5538 L111.8862,140.5538 C111.8862,136.1651 115.4975,132.5538 119.8862,132.5538 L119.8862,132.5538 C124.2748,132.5538 127.8862,136.1651 127.8862,140.5538 "
                                      stroke-width="0.9999999" stroke-miterlimit="13.33333" stroke="#4682b4" fill="none"
                                      fill-rule="nonzero"/>
                                <g>
                                    <text>
                                        <tspan x="116.2753" y="140.5538" font-family="Arial" font-weight="normal"
                                               font-style="normal" font-size="9.999999" fill="#23527c">H
                                        </tspan>
                                    </text>
                                </g>
                                <path d="M118.7477,132.6352 L115.3321,108.8795 " stroke-width="2"
                                      stroke-miterlimit="13.33333" stroke="#666666" fill="none" fill-rule="evenodd"/>
                                <g transform="matrix(-0.2846299,-1.979643,1.979643,-0.2846299,112.2267,115.3877)">
                                    <g>
                                        <path d="M0,0 L4,2 L0,4 Z" fill="#666666" fill-rule="nonzero"/>
                                    </g>
                                </g>
                                <path d="M122.1936,100.9609 C122.1936,105.3496 118.5822,108.9609 114.1936,108.9609 L114.1936,108.9609 C109.8049,108.9609 106.1936,105.3496 106.1936,100.9609 L106.1936,100.9609 C106.1936,96.57226 109.8049,92.96091 114.1936,92.96091 L114.1936,92.96091 C118.5822,92.96091 122.1936,96.57226 122.1936,100.9609 "
                                      fill="#87cefa" fill-rule="nonzero"/>
                                <path d="M122.1936,100.9609 C122.1936,105.3496 118.5822,108.9609 114.1936,108.9609 L114.1936,108.9609 C109.8049,108.9609 106.1936,105.3496 106.1936,100.9609 L106.1936,100.9609 C106.1936,96.57226 109.8049,92.96091 114.1936,92.96091 L114.1936,92.96091 C118.5822,92.96091 122.1936,96.57226 122.1936,100.9609 "
                                      stroke-width="0.9999999" stroke-miterlimit="13.33333" stroke="#4682b4" fill="none"
                                      fill-rule="nonzero"/>
                                <g>
                                    <text>
                                        <tspan x="109.1936" y="100.9609" font-family="Arial" font-weight="normal"
                                               font-style="normal" font-size="9.999999" fill="#23527c">…
                                        </tspan>
                                    </text>
                                </g>
                                <path d="M113.0551,93.04235 L109.6395,69.28664 " stroke-width="2"
                                      stroke-miterlimit="13.33333" stroke="#666666" fill="none" fill-rule="evenodd"/>
                                <g transform="matrix(-0.2846288,-1.979643,1.979643,-0.2846288,106.5341,75.79482)">
                                    <g>
                                        <path d="M0,0 L4,2 L0,4 Z" fill="#666666" fill-rule="nonzero"/>
                                    </g>
                                </g>
                                <path d="M116.501,61.36806 C116.501,65.75674 112.8897,69.36806 108.501,69.36806 L108.501,69.36806 C104.1123,69.36806 100.501,65.75674 100.501,61.36806 L100.501,61.36806 C100.501,56.97939 104.1123,53.36807 108.501,53.36807 L108.501,53.36807 C112.8897,53.36807 116.501,56.97939 116.501,61.36806 "
                                      fill="#87cefa" fill-rule="nonzero"/>
                                <path d="M116.501,61.36806 C116.501,65.75674 112.8897,69.36806 108.501,69.36806 L108.501,69.36806 C104.1123,69.36806 100.501,65.75674 100.501,61.36806 L100.501,61.36806 C100.501,56.97939 104.1123,53.36807 108.501,53.36807 L108.501,53.36807 C112.8897,53.36807 116.501,56.97939 116.501,61.36806 "
                                      stroke-width="0.9999999" stroke-miterlimit="13.33333" stroke="#4682b4" fill="none"
                                      fill-rule="nonzero"/>
                                <g>
                                    <text>
                                        <tspan x="105.4468" y="61.36806" font-family="Arial" font-weight="normal"
                                               font-style="normal" font-size="9.999999" fill="#23527c">T
                                        </tspan>
                                    </text>
                                </g>
                                <path d="M150,200 L150,200 L152.6178,200.0228 L155.2349,200.0914 L157.8504,200.2056 L160.4635,200.3654 L163.0733,200.5708 L165.6792,200.8217 L168.2804,201.1181 L170.876,201.4598 L173.4652,201.8467 L176.0472,202.2788 L178.6213,202.7559 L181.1867,203.2778 L183.7426,203.8445 L186.2883,204.4556 L188.8229,205.1111 L191.3456,205.8107 L192.2599,206.076 L178.1732,254.0507 L178.1732,254.0507 L177.5637,253.8738 L175.8819,253.4074 L174.1922,252.9704 L172.4951,252.563 L170.7912,252.1852 L169.0809,251.8372 L167.3648,251.5192 L165.6434,251.2311 L163.9173,250.9731 L162.1869,250.7454 L160.4528,250.5478 L158.7156,250.3805 L156.9756,250.2436 L155.2336,250.137 L153.4899,250.0609 L151.7452,250.0152 L150,250 Z"
                                      fill="#e0e0e0" fill-rule="nonzero"/>
                                <path d="M150,200 L150,200 L152.6178,200.0228 L155.2349,200.0914 L157.8504,200.2056 L160.4635,200.3654 L163.0733,200.5708 L165.6792,200.8217 L168.2804,201.1181 L170.876,201.4598 L173.4652,201.8467 L176.0472,202.2788 L178.6213,202.7559 L181.1867,203.2778 L183.7426,203.8445 L186.2883,204.4556 L188.8229,205.1111 L191.3456,205.8107 L192.2599,206.076 L178.1732,254.0507 L178.1732,254.0507 L177.5637,253.8738 L175.8819,253.4074 L174.1922,252.9704 L172.4951,252.563 L170.7912,252.1852 L169.0809,251.8372 L167.3648,251.5192 L165.6434,251.2311 L163.9173,250.9731 L162.1869,250.7454 L160.4528,250.5478 L158.7156,250.3805 L156.9756,250.2436 L155.2336,250.137 L153.4899,250.0609 L151.7452,250.0152 L150,250 Z"
                                      stroke-width="2" stroke-miterlimit="13.33333" stroke="#ffffff" fill="none"
                                      fill-rule="nonzero"/>
                                <g>
                                    <text>
                                        <tspan x="151.7786" y="226.2723" font-family="Arial Unicode MS"
                                               font-weight="normal" font-style="normal" font-size="12" fill="#333333">￥
                                        </tspan>
                                        <tspan x="163.7786" y="226.2723" font-family="Arial" font-weight="normal"
                                               font-style="normal" font-size="12" fill="#333333">103
                                        </tspan>
                                    </text>
                                </g>
                                <path d="M171.3472,201.5267 L178.9753,148.4723 " stroke-width="2"
                                      stroke-miterlimit="13.33333" stroke="#666666" fill="none" fill-rule="evenodd"/>
                                <g transform="matrix(0.2846299,-1.979643,1.979643,0.2846299,174.1621,153.842)">
                                    <g>
                                        <path d="M0,0 L4,2 L0,4 Z" fill="#666666" fill-rule="nonzero"/>
                                    </g>
                                </g>
                                <path d="M188.1138,140.5538 C188.1138,144.9424 184.5025,148.5538 180.1138,148.5538 L180.1138,148.5538 C175.7251,148.5538 172.1138,144.9424 172.1138,140.5538 L172.1138,140.5538 C172.1138,136.1651 175.7251,132.5538 180.1138,132.5538 L180.1138,132.5538 C184.5025,132.5538 188.1138,136.1651 188.1138,140.5538 "
                                      fill="#87cefa" fill-rule="nonzero"/>
                                <path d="M188.1138,140.5538 C188.1138,144.9424 184.5025,148.5538 180.1138,148.5538 L180.1138,148.5538 C175.7251,148.5538 172.1138,144.9424 172.1138,140.5538 L172.1138,140.5538 C172.1138,136.1651 175.7251,132.5538 180.1138,132.5538 L180.1138,132.5538 C184.5025,132.5538 188.1138,136.1651 188.1138,140.5538 "
                                      stroke-width="0.9999999" stroke-miterlimit="13.33333" stroke="#4682b4" fill="none"
                                      fill-rule="nonzero"/>
                                <g>
                                    <text>
                                        <tspan x="176.5029" y="140.5538" font-family="Arial" font-weight="normal"
                                               font-style="normal" font-size="9.999999" fill="#23527c">H
                                        </tspan>
                                    </text>
                                </g>
                                <path d="M181.2523,132.6352 L184.6679,108.8795 " stroke-width="2"
                                      stroke-miterlimit="13.33333" stroke="#666666" fill="none" fill-rule="evenodd"/>
                                <g transform="matrix(0.2846288,-1.979643,1.979643,0.2846288,179.8547,114.2491)">
                                    <g>
                                        <path d="M0,0 L4,2 L0,4 Z" fill="#666666" fill-rule="nonzero"/>
                                    </g>
                                </g>
                                <path d="M193.8064,100.9609 C193.8064,105.3496 190.1951,108.9609 185.8064,108.9609 L185.8064,108.9609 C181.4177,108.9609 177.8064,105.3496 177.8064,100.9609 L177.8064,100.9609 C177.8064,96.57226 181.4177,92.96091 185.8064,92.96091 L185.8064,92.96091 C190.1951,92.96091 193.8064,96.57226 193.8064,100.9609 "
                                      fill="#87cefa" fill-rule="nonzero"/>
                                <path d="M193.8064,100.9609 C193.8064,105.3496 190.1951,108.9609 185.8064,108.9609 L185.8064,108.9609 C181.4177,108.9609 177.8064,105.3496 177.8064,100.9609 L177.8064,100.9609 C177.8064,96.57226 181.4177,92.96091 185.8064,92.96091 L185.8064,92.96091 C190.1951,92.96091 193.8064,96.57226 193.8064,100.9609 "
                                      stroke-width="0.9999999" stroke-miterlimit="13.33333" stroke="#4682b4" fill="none"
                                      fill-rule="nonzero"/>
                                <g>
                                    <text>
                                        <tspan x="180.8064" y="100.9609" font-family="Arial" font-weight="normal"
                                               font-style="normal" font-size="9.999999" fill="#23527c">…
                                        </tspan>
                                    </text>
                                </g>
                                <path d="M186.9449,93.04235 L190.3605,69.28664 " stroke-width="2"
                                      stroke-miterlimit="13.33333" stroke="#666666" fill="none" fill-rule="evenodd"/>
                                <g transform="matrix(0.2846309,-1.979643,1.979643,0.2846309,185.5473,74.6563)">
                                    <g>
                                        <path d="M0,0 L4,2 L0,4 Z" fill="#666666" fill-rule="nonzero"/>
                                    </g>
                                </g>
                                <path d="M199.499,61.36806 C199.499,65.75674 195.8877,69.36806 191.499,69.36806 L191.499,69.36806 C187.1103,69.36806 183.499,65.75674 183.499,61.36806 L183.499,61.36806 C183.499,56.97939 187.1103,53.36807 191.499,53.36807 L191.499,53.36807 C195.8877,53.36807 199.499,56.97939 199.499,61.36806 "
                                      fill="#87cefa" fill-rule="nonzero"/>
                                <path d="M199.499,61.36806 C199.499,65.75674 195.8877,69.36806 191.499,69.36806 L191.499,69.36806 C187.1103,69.36806 183.499,65.75674 183.499,61.36806 L183.499,61.36806 C183.499,56.97939 187.1103,53.36807 191.499,53.36807 L191.499,53.36807 C195.8877,53.36807 199.499,56.97939 199.499,61.36806 "
                                      stroke-width="0.9999999" stroke-miterlimit="13.33333" stroke="#4682b4" fill="none"
                                      fill-rule="nonzero"/>
                                <g>
                                    <text>
                                        <tspan x="188.4448" y="61.36806" font-family="Arial" font-weight="normal"
                                               font-style="normal" font-size="9.999999" fill="#23527c">T
                                        </tspan>
                                    </text>
                                </g>
                                <path d="M192.2599,206.076 L192.2599,206.076 L194.7653,206.8355 L197.257,207.6385 L199.7344,208.485 L202.1966,209.3746 L204.6429,210.3069 L207.0725,211.2818 L209.4848,212.299 L211.879,213.3581 L214.2543,214.4589 L216.61,215.6009 L218.9454,216.7839 L221.2598,218.0075 L223.5526,219.2712 L225.8229,220.5748 L228.0701,221.9178 L230.2936,223.2998 L231.0961,223.812 L204.0641,265.8746 L204.0641,265.8746 L203.5291,265.5332 L202.0468,264.6119 L200.5486,263.7165 L199.0351,262.8474 L197.5066,262.005 L195.9636,261.1892 L194.4066,260.4006 L192.8361,259.6393 L191.2526,258.9054 L189.6565,258.1993 L188.0483,257.5212 L186.4286,256.8712 L184.7977,256.2497 L183.1562,255.6566 L181.5046,255.0924 L179.8435,254.557 L178.1732,254.0507 Z"
                                      fill="#e0e0e0" fill-rule="nonzero"/>
                                <path d="M192.2599,206.076 L192.2599,206.076 L194.7653,206.8355 L197.257,207.6385 L199.7344,208.485 L202.1966,209.3746 L204.6429,210.3069 L207.0725,211.2818 L209.4848,212.299 L211.879,213.3581 L214.2543,214.4589 L216.61,215.6009 L218.9454,216.7839 L221.2598,218.0075 L223.5526,219.2712 L225.8229,220.5748 L228.0701,221.9178 L230.2936,223.2998 L231.0961,223.812 L204.0641,265.8746 L204.0641,265.8746 L203.5291,265.5332 L202.0468,264.6119 L200.5486,263.7165 L199.0351,262.8474 L197.5066,262.005 L195.9636,261.1892 L194.4066,260.4006 L192.8361,259.6393 L191.2526,258.9054 L189.6565,258.1993 L188.0483,257.5212 L186.4286,256.8712 L184.7977,256.2497 L183.1562,255.6566 L181.5046,255.0924 L179.8435,254.557 L178.1732,254.0507 Z"
                                      stroke-width="2" stroke-miterlimit="13.33333" stroke="#ffffff" fill="none"
                                      fill-rule="nonzero"/>
                                <g>
                                    <text>
                                        <tspan x="185.9161" y="236.296" font-family="Arial Unicode MS"
                                               font-weight="normal" font-style="normal" font-size="12" fill="#333333">￥
                                        </tspan>
                                        <tspan x="197.9161" y="236.296" font-family="Arial" font-weight="normal"
                                               font-style="normal" font-size="12" fill="#333333">102
                                        </tspan>
                                    </text>
                                </g>
                                <path d="M212.3123,213.5552 L234.5785,164.7989 " stroke-width="2"
                                      stroke-miterlimit="13.33333" stroke="#666666" fill="none" fill-rule="evenodd"/>
                                <g transform="matrix(0.8308296,-1.819264,1.819264,0.8308296,228.4474,168.595)">
                                    <g>
                                        <path d="M0,0 L4,2 L0,4 Z" fill="#666666" fill-rule="nonzero"/>
                                    </g>
                                </g>
                                <path d="M245.9018,157.5219 C245.9018,161.9105 242.2905,165.5219 237.9018,165.5219 L237.9018,165.5219 C233.5131,165.5219 229.9018,161.9105 229.9018,157.5219 L229.9018,157.5219 C229.9018,153.1332 233.5131,149.5219 237.9018,149.5219 L237.9018,149.5219 C242.2905,149.5219 245.9018,153.1332 245.9018,157.5219 "
                                      fill="#87cefa" fill-rule="nonzero"/>
                                <path d="M245.9018,157.5219 C245.9018,161.9105 242.2905,165.5219 237.9018,165.5219 L237.9018,165.5219 C233.5131,165.5219 229.9018,161.9105 229.9018,157.5219 L229.9018,157.5219 C229.9018,153.1332 233.5131,149.5219 237.9018,149.5219 L237.9018,149.5219 C242.2905,149.5219 245.9018,153.1332 245.9018,157.5219 "
                                      stroke-width="0.9999999" stroke-miterlimit="13.33333" stroke="#4682b4" fill="none"
                                      fill-rule="nonzero"/>
                                <g>
                                    <text>
                                        <tspan x="234.291" y="157.5219" font-family="Arial" font-weight="normal"
                                               font-style="normal" font-size="9.999999" fill="#23527c">H
                                        </tspan>
                                    </text>
                                </g>
                                <path d="M241.2251,150.2448 L251.1951,128.4136 " stroke-width="2"
                                      stroke-miterlimit="13.33333" stroke="#666666" fill="none" fill-rule="evenodd"/>
                                <g transform="matrix(0.8308296,-1.819264,1.819264,0.8308296,245.064,132.2098)">
                                    <g>
                                        <path d="M0,0 L4,2 L0,4 Z" fill="#666666" fill-rule="nonzero"/>
                                    </g>
                                </g>
                                <path d="M262.5184,121.1366 C262.5184,125.5252 258.9071,129.1366 254.5184,129.1366 L254.5184,129.1366 C250.1297,129.1366 246.5184,125.5252 246.5184,121.1366 L246.5184,121.1366 C246.5184,116.7479 250.1297,113.1366 254.5184,113.1366 L254.5184,113.1366 C258.9071,113.1366 262.5184,116.7479 262.5184,121.1366 "
                                      fill="#87cefa" fill-rule="nonzero"/>
                                <path d="M262.5184,121.1366 C262.5184,125.5252 258.9071,129.1366 254.5184,129.1366 L254.5184,129.1366 C250.1297,129.1366 246.5184,125.5252 246.5184,121.1366 L246.5184,121.1366 C246.5184,116.7479 250.1297,113.1366 254.5184,113.1366 L254.5184,113.1366 C258.9071,113.1366 262.5184,116.7479 262.5184,121.1366 "
                                      stroke-width="0.9999999" stroke-miterlimit="13.33333" stroke="#4682b4" fill="none"
                                      fill-rule="nonzero"/>
                                <g>
                                    <text>
                                        <tspan x="249.5184" y="121.1366" font-family="Arial" font-weight="normal"
                                               font-style="normal" font-size="9.999999" fill="#23527c">…
                                        </tspan>
                                    </text>
                                </g>
                                <path d="M257.8417,113.8595 L267.8117,92.02837 " stroke-width="2"
                                      stroke-miterlimit="13.33333" stroke="#666666" fill="none" fill-rule="evenodd"/>
                                <g transform="matrix(0.8308306,-1.819264,1.819264,0.8308306,261.6807,95.82449)">
                                    <g>
                                        <path d="M0,0 L4,2 L0,4 Z" fill="#666666" fill-rule="nonzero"/>
                                    </g>
                                </g>
                                <path d="M279.135,84.7513 C279.135,89.13998 275.5237,92.7513 271.135,92.7513 L271.135,92.7513 C266.7463,92.7513 263.135,89.13998 263.135,84.7513 L263.135,84.7513 C263.135,80.36263 266.7463,76.7513 271.135,76.7513 L271.135,76.7513 C275.5237,76.7513 279.135,80.36263 279.135,84.7513 "
                                      fill="#87cefa" fill-rule="nonzero"/>
                                <path d="M279.135,84.7513 C279.135,89.13998 275.5237,92.7513 271.135,92.7513 L271.135,92.7513 C266.7463,92.7513 263.135,89.13998 263.135,84.7513 L263.135,84.7513 C263.135,80.36263 266.7463,76.7513 271.135,76.7513 L271.135,76.7513 C275.5237,76.7513 279.135,80.36263 279.135,84.7513 "
                                      stroke-width="0.9999999" stroke-miterlimit="13.33333" stroke="#4682b4" fill="none"
                                      fill-rule="nonzero"/>
                                <g>
                                    <text>
                                        <tspan x="268.0808" y="84.7513" font-family="Arial" font-weight="normal"
                                               font-style="normal" font-size="9.999999" fill="#23527c">T
                                        </tspan>
                                    </text>
                                </g>
                                <path d="M231.0961,223.812 L231.0961,223.812 L233.286,225.2465 L235.4506,226.719 L237.5891,228.2291 L239.701,229.7763 L241.7855,231.3601 L243.8421,232.9801 L245.8701,234.6357 L247.8689,236.3264 L249.8378,238.0518 L251.7764,239.8112 L253.684,241.6042 L255.5599,243.4303 L257.4037,245.2888 L259.2148,247.1792 L260.9927,249.1009 L262.7367,251.0534 L263.3624,251.7709 L225.5749,284.5139 L225.5749,284.5139 L225.1578,284.0356 L223.9951,282.7339 L222.8099,281.4528 L221.6025,280.1925 L220.3732,278.9535 L219.1226,277.7362 L217.8509,276.5408 L216.5585,275.3678 L215.2459,274.2176 L213.9134,273.0904 L212.5614,271.9867 L211.1904,270.9068 L209.8007,269.8509 L208.3928,268.8194 L206.9671,267.8127 L205.524,266.831 L204.0641,265.8746 Z"
                                      fill="#e0e0e0" fill-rule="nonzero"/>
                                <path d="M231.0961,223.812 L231.0961,223.812 L233.286,225.2465 L235.4506,226.719 L237.5891,228.2291 L239.701,229.7763 L241.7855,231.3601 L243.8421,232.9801 L245.8701,234.6357 L247.8689,236.3264 L249.8378,238.0518 L251.7764,239.8112 L253.684,241.6042 L255.5599,243.4303 L257.4037,245.2888 L259.2148,247.1792 L260.9927,249.1009 L262.7367,251.0534 L263.3624,251.7709 L225.5749,284.5139 L225.5749,284.5139 L225.1578,284.0356 L223.9951,282.7339 L222.8099,281.4528 L221.6025,280.1925 L220.3732,278.9535 L219.1226,277.7362 L217.8509,276.5408 L216.5585,275.3678 L215.2459,274.2176 L213.9134,273.0904 L212.5614,271.9867 L211.1904,270.9068 L209.8007,269.8509 L208.3928,268.8194 L206.9671,267.8127 L205.524,266.831 L204.0641,265.8746 Z"
                                      stroke-width="2" stroke-miterlimit="13.33333" stroke="#ffffff" fill="none"
                                      fill-rule="nonzero"/>
                                <g>
                                    <text>
                                        <tspan x="215.8468" y="255.5313" font-family="Arial Unicode MS"
                                               font-weight="normal" font-style="normal" font-size="12" fill="#333333">￥
                                        </tspan>
                                        <tspan x="227.8468" y="255.5313" font-family="Arial" font-weight="normal"
                                               font-style="normal" font-size="12" fill="#333333">101
                                        </tspan>
                                    </text>
                                </g>
                                <path d="M248.2291,236.6376 L283.3296,196.1294 " stroke-width="2"
                                      stroke-miterlimit="13.33333" stroke="#666666" fill="none" fill-rule="evenodd"/>
                                <g transform="matrix(1.309721,-1.511499,1.511499,1.309721,276.3775,198.0444)">
                                    <g>
                                        <path d="M0,0 L4,2 L0,4 Z" fill="#666666" fill-rule="nonzero"/>
                                    </g>
                                </g>
                                <path d="M296.5685,190.0834 C296.5685,194.472 292.9572,198.0834 288.5685,198.0834 L288.5685,198.0834 C284.1798,198.0834 280.5685,194.472 280.5685,190.0834 L280.5685,190.0834 C280.5685,185.6947 284.1798,182.0834 288.5685,182.0834 L288.5685,182.0834 C292.9572,182.0834 296.5685,185.6947 296.5685,190.0834 "
                                      fill="#87cefa" fill-rule="nonzero"/>
                                <path d="M296.5685,190.0834 C296.5685,194.472 292.9572,198.0834 288.5685,198.0834 L288.5685,198.0834 C284.1798,198.0834 280.5685,194.472 280.5685,190.0834 L280.5685,190.0834 C280.5685,185.6947 284.1798,182.0834 288.5685,182.0834 L288.5685,182.0834 C292.9572,182.0834 296.5685,185.6947 296.5685,190.0834 "
                                      stroke-width="0.9999999" stroke-miterlimit="13.33333" stroke="#4682b4" fill="none"
                                      fill-rule="nonzero"/>
                                <g>
                                    <text>
                                        <tspan x="284.9577" y="190.0834" font-family="Arial" font-weight="normal"
                                               font-style="normal" font-size="9.999999" fill="#23527c">H
                                        </tspan>
                                    </text>
                                </g>
                                <path d="M293.8074,184.0374 L309.524,165.8994 " stroke-width="2"
                                      stroke-miterlimit="13.33333" stroke="#666666" fill="none" fill-rule="evenodd"/>
                                <g transform="matrix(1.309721,-1.511499,1.511499,1.309721,302.5719,167.8145)">
                                    <g>
                                        <path d="M0,0 L4,2 L0,4 Z" fill="#666666" fill-rule="nonzero"/>
                                    </g>
                                </g>
                                <path d="M322.7629,159.8534 C322.7629,164.2421 319.1516,167.8534 314.7629,167.8534 L314.7629,167.8534 C310.3742,167.8534 306.7629,164.2421 306.7629,159.8534 L306.7629,159.8534 C306.7629,155.4647 310.3742,151.8534 314.7629,151.8534 L314.7629,151.8534 C319.1516,151.8534 322.7629,155.4647 322.7629,159.8534 "
                                      fill="#87cefa" fill-rule="nonzero"/>
                                <path d="M322.7629,159.8534 C322.7629,164.2421 319.1516,167.8534 314.7629,167.8534 L314.7629,167.8534 C310.3742,167.8534 306.7629,164.2421 306.7629,159.8534 L306.7629,159.8534 C306.7629,155.4647 310.3742,151.8534 314.7629,151.8534 L314.7629,151.8534 C319.1516,151.8534 322.7629,155.4647 322.7629,159.8534 "
                                      stroke-width="0.9999999" stroke-miterlimit="13.33333" stroke="#4682b4" fill="none"
                                      fill-rule="nonzero"/>
                                <g>
                                    <text>
                                        <tspan x="309.7629" y="159.8534" font-family="Arial" font-weight="normal"
                                               font-style="normal" font-size="9.999999" fill="#23527c">…
                                        </tspan>
                                    </text>
                                </g>
                                <path d="M320.0019,153.8074 L335.7185,135.6694 " stroke-width="2"
                                      stroke-miterlimit="13.33333" stroke="#666666" fill="none" fill-rule="evenodd"/>
                                <g transform="matrix(1.309721,-1.511499,1.511499,1.309721,328.7663,137.5845)">
                                    <g>
                                        <path d="M0,0 L4,2 L0,4 Z" fill="#666666" fill-rule="nonzero"/>
                                    </g>
                                </g>
                                <path d="M348.9574,129.6234 C348.9574,134.0121 345.346,137.6234 340.9574,137.6234 L340.9574,137.6234 C336.5687,137.6234 332.9574,134.0121 332.9574,129.6234 L332.9574,129.6234 C332.9574,125.2347 336.5687,121.6234 340.9574,121.6234 L340.9574,121.6234 C345.346,121.6234 348.9574,125.2347 348.9574,129.6234 "
                                      fill="#87cefa" fill-rule="nonzero"/>
                                <path d="M348.9574,129.6234 C348.9574,134.0121 345.346,137.6234 340.9574,137.6234 L340.9574,137.6234 C336.5687,137.6234 332.9574,134.0121 332.9574,129.6234 L332.9574,129.6234 C332.9574,125.2347 336.5687,121.6234 340.9574,121.6234 L340.9574,121.6234 C345.346,121.6234 348.9574,125.2347 348.9574,129.6234 "
                                      stroke-width="0.9999999" stroke-miterlimit="13.33333" stroke="#4682b4" fill="none"
                                      fill-rule="nonzero"/>
                                <g>
                                    <text>
                                        <tspan x="337.9032" y="129.6234" font-family="Arial" font-weight="normal"
                                               font-style="normal" font-size="9.999999" fill="#23527c">T
                                        </tspan>
                                    </text>
                                </g>
                                <path d="M263.3624,251.7709 L263.3624,251.7709 L265.0595,253.7643 L266.7215,255.787 L268.348,257.8384 L269.9384,259.9179 L271.4923,262.0248 L273.0091,264.1586 L274.4885,266.3185 L275.93,268.5038 L277.3332,270.714 L278.6975,272.9483 L280.0226,275.2062 L281.3081,277.4868 L282.5537,279.7895 L283.7588,282.1136 L284.9232,284.4583 L286.0465,286.823 L286.4448,287.6877 L240.9632,308.4585 L240.9632,308.4585 L240.6977,307.882 L239.9488,306.3055 L239.1725,304.7423 L238.3691,303.193 L237.5387,301.6578 L236.6817,300.1375 L235.7983,298.6322 L234.8887,297.1427 L233.9533,295.6692 L232.9923,294.2123 L232.0061,292.7724 L230.9948,291.3499 L229.9589,289.9453 L228.8986,288.5589 L227.8143,287.1913 L226.7063,285.8428 L225.5749,284.5139 Z"
                                      fill="#e0e0e0" fill-rule="nonzero"/>
                                <path d="M263.3624,251.7709 L263.3624,251.7709 L265.0595,253.7643 L266.7215,255.787 L268.348,257.8384 L269.9384,259.9179 L271.4923,262.0248 L273.0091,264.1586 L274.4885,266.3185 L275.93,268.5038 L277.3332,270.714 L278.6975,272.9483 L280.0226,275.2062 L281.3081,277.4868 L282.5537,279.7895 L283.7588,282.1136 L284.9232,284.4583 L286.0465,286.823 L286.4448,287.6877 L240.9632,308.4585 L240.9632,308.4585 L240.6977,307.882 L239.9488,306.3055 L239.1725,304.7423 L238.3691,303.193 L237.5387,301.6578 L236.6817,300.1375 L235.7983,298.6322 L234.8887,297.1427 L233.9533,295.6692 L232.9923,294.2123 L232.0061,292.7724 L230.9948,291.3499 L229.9589,289.9453 L228.8986,288.5589 L227.8143,287.1913 L226.7063,285.8428 L225.5749,284.5139 Z"
                                      stroke-width="2" stroke-miterlimit="13.33333" stroke="#ffffff" fill="none"
                                      fill-rule="nonzero"/>
                                <g>
                                    <text>
                                        <tspan x="239.1459" y="282.4199" font-family="Arial Unicode MS"
                                               font-weight="normal" font-style="normal" font-size="12" fill="#333333">￥
                                        </tspan>
                                        <tspan x="251.1459" y="282.4199" font-family="Arial" font-weight="normal"
                                               font-style="normal" font-size="12" fill="#333333">100
                                        </tspan>
                                    </text>
                                </g>
                                <path d="M276.188,268.9038 L321.2792,239.9255 " stroke-width="2"
                                      stroke-miterlimit="13.33333" stroke="#666666" fill="none" fill-rule="evenodd"/>
                                <g transform="matrix(1.682507,-1.081281,1.081281,1.682507,314.0691,239.8043)">
                                    <g>
                                        <path d="M0,0 L4,2 L0,4 Z" fill="#666666" fill-rule="nonzero"/>
                                    </g>
                                </g>
                                <path d="M336.0092,235.6004 C336.0092,239.9891 332.3979,243.6004 328.0092,243.6004 L328.0092,243.6004 C323.6206,243.6004 320.0092,239.9891 320.0092,235.6004 L320.0092,235.6004 C320.0092,231.2117 323.6206,227.6004 328.0092,227.6004 L328.0092,227.6004 C332.3979,227.6004 336.0092,231.2117 336.0092,235.6004 "
                                      fill="#87cefa" fill-rule="nonzero"/>
                                <path d="M336.0092,235.6004 C336.0092,239.9891 332.3979,243.6004 328.0092,243.6004 L328.0092,243.6004 C323.6206,243.6004 320.0092,239.9891 320.0092,235.6004 L320.0092,235.6004 C320.0092,231.2117 323.6206,227.6004 328.0092,227.6004 L328.0092,227.6004 C332.3979,227.6004 336.0092,231.2117 336.0092,235.6004 "
                                      stroke-width="0.9999999" stroke-miterlimit="13.33333" stroke="#4682b4" fill="none"
                                      fill-rule="nonzero"/>
                                <g>
                                    <text>
                                        <tspan x="324.3984" y="235.6004" font-family="Arial" font-weight="normal"
                                               font-style="normal" font-size="9.999999" fill="#23527c">H
                                        </tspan>
                                    </text>
                                </g>
                                <path d="M334.7392,231.2753 L354.9294,218.2999 " stroke-width="2"
                                      stroke-miterlimit="13.33333" stroke="#666666" fill="none" fill-rule="evenodd"/>
                                <g transform="matrix(1.682508,-1.08128,1.08128,1.682508,347.7193,218.1787)">
                                    <g>
                                        <path d="M0,0 L4,2 L0,4 Z" fill="#666666" fill-rule="nonzero"/>
                                    </g>
                                </g>
                                <path d="M369.6593,213.9748 C369.6593,218.3634 366.0481,221.9747 361.6593,221.9747 L361.6593,221.9747 C357.2707,221.9747 353.6593,218.3634 353.6593,213.9748 L353.6593,213.9748 C353.6593,209.5861 357.2707,205.9748 361.6593,205.9748 L361.6593,205.9748 C366.0481,205.9748 369.6593,209.5861 369.6593,213.9748 "
                                      fill="#87cefa" fill-rule="nonzero"/>
                                <path d="M369.6593,213.9748 C369.6593,218.3634 366.0481,221.9747 361.6593,221.9747 L361.6593,221.9747 C357.2707,221.9747 353.6593,218.3634 353.6593,213.9748 L353.6593,213.9748 C353.6593,209.5861 357.2707,205.9748 361.6593,205.9748 L361.6593,205.9748 C366.0481,205.9748 369.6593,209.5861 369.6593,213.9748 "
                                      stroke-width="0.9999999" stroke-miterlimit="13.33333" stroke="#4682b4" fill="none"
                                      fill-rule="nonzero"/>
                                <g>
                                    <text>
                                        <tspan x="356.6593" y="213.9748" font-family="Arial" font-weight="normal"
                                               font-style="normal" font-size="9.999999" fill="#23527c">…
                                        </tspan>
                                    </text>
                                </g>
                                <path d="M368.3894,209.6496 L388.5795,196.6742 " stroke-width="2"
                                      stroke-miterlimit="13.33333" stroke="#666666" fill="none" fill-rule="evenodd"/>
                                <g transform="matrix(1.682507,-1.081281,1.081281,1.682507,381.3694,196.5531)">
                                    <g>
                                        <path d="M0,0 L4,2 L0,4 Z" fill="#666666" fill-rule="nonzero"/>
                                    </g>
                                </g>
                                <path d="M403.3095,192.3491 C403.3095,196.7378 399.6982,200.3491 395.3095,200.3491 L395.3095,200.3491 C390.9209,200.3491 387.3095,196.7378 387.3095,192.3491 L387.3095,192.3491 C387.3095,187.9605 390.9209,184.3491 395.3095,184.3491 L395.3095,184.3491 C399.6982,184.3491 403.3095,187.9605 403.3095,192.3491 "
                                      fill="#87cefa" fill-rule="nonzero"/>
                                <path d="M403.3095,192.3491 C403.3095,196.7378 399.6982,200.3491 395.3095,200.3491 L395.3095,200.3491 C390.9209,200.3491 387.3095,196.7378 387.3095,192.3491 L387.3095,192.3491 C387.3095,187.9605 390.9209,184.3491 395.3095,184.3491 L395.3095,184.3491 C399.6982,184.3491 403.3095,187.9605 403.3095,192.3491 "
                                      stroke-width="0.9999999" stroke-miterlimit="13.33333" stroke="#4682b4" fill="none"
                                      fill-rule="nonzero"/>
                                <g>
                                    <text>
                                        <tspan x="392.2553" y="192.3491" font-family="Arial" font-weight="normal"
                                               font-style="normal" font-size="9.999999" fill="#23527c">T
                                        </tspan>
                                    </text>
                                </g>
                                <path d="M286.4448,287.6877 L286.4448,287.6877 L287.5115,290.0785 L288.5363,292.4875 L289.519,294.9141 L290.4591,297.3575 L291.3564,299.8168 L292.2107,302.2914 L293.0217,304.7806 L293.7891,307.2836 L294.5127,309.7996 L295.1923,312.3278 L295.8276,314.8675 L296.4186,317.4179 L296.9649,319.9782 L297.4665,322.5476 L297.9231,325.1255 L298.3347,327.7109 L298.4732,328.6527 L248.9821,335.7685 L248.9821,335.7685 L248.8898,335.1406 L248.6154,333.417 L248.311,331.6984 L247.9766,329.9855 L247.6124,328.2786 L247.2184,326.5783 L246.7948,324.8852 L246.3418,323.1997 L245.8594,321.5224 L245.3478,319.8537 L244.8071,318.1943 L244.2376,316.5445 L243.6394,314.9049 L243.0126,313.2761 L242.3575,311.6584 L241.6743,310.0523 L240.9632,308.4585 Z"
                                      fill="#e0e0e0" fill-rule="nonzero"/>
                                <path d="M286.4448,287.6877 L286.4448,287.6877 L287.5115,290.0785 L288.5363,292.4875 L289.519,294.9141 L290.4591,297.3575 L291.3564,299.8168 L292.2107,302.2914 L293.0217,304.7806 L293.7891,307.2836 L294.5127,309.7996 L295.1923,312.3278 L295.8276,314.8675 L296.4186,317.4179 L296.9649,319.9782 L297.4665,322.5476 L297.9231,325.1255 L298.3347,327.7109 L298.4732,328.6527 L248.9821,335.7685 L248.9821,335.7685 L248.8898,335.1406 L248.6154,333.417 L248.311,331.6984 L247.9766,329.9855 L247.6124,328.2786 L247.2184,326.5783 L246.7948,324.8852 L246.3418,323.1997 L245.8594,321.5224 L245.3478,319.8537 L244.8071,318.1943 L244.2376,316.5445 L243.6394,314.9049 L243.0126,313.2761 L242.3575,311.6584 L241.6743,310.0523 L240.9632,308.4585 Z"
                                      stroke-width="2" stroke-miterlimit="13.33333" stroke="#ffffff" fill="none"
                                      fill-rule="nonzero"/>
                                <g>
                                    <text>
                                        <tspan x="257.2628" y="314.7834" font-family="Arial Unicode MS"
                                               font-weight="normal" font-style="normal" font-size="12" fill="#333333">￥
                                        </tspan>
                                        <tspan x="269.2628" y="314.7834" font-family="Arial" font-weight="normal"
                                               font-style="normal" font-size="12" fill="#333333">99
                                        </tspan>
                                    </text>
                                </g>
                                <path d="M293.924,307.7401 L345.3528,292.6392 " stroke-width="2"
                                      stroke-miterlimit="13.33333" stroke="#666666" fill="none" fill-rule="evenodd"/>
                                <g transform="matrix(1.918986,-0.5634655,0.5634655,1.918986,338.4689,290.4916)">
                                    <g>
                                        <path d="M0,0 L4,2 L0,4 Z" fill="#666666" fill-rule="nonzero"/>
                                    </g>
                                </g>
                                <path d="M361.0287,290.3854 C361.0287,294.774 357.4174,298.3854 353.0287,298.3854 L353.0287,298.3854 C348.64,298.3854 345.0287,294.774 345.0287,290.3854 L345.0287,290.3854 C345.0287,285.9967 348.64,282.3854 353.0287,282.3854 L353.0287,282.3854 C357.4174,282.3854 361.0287,285.9967 361.0287,290.3854 "
                                      fill="#87cefa" fill-rule="nonzero"/>
                                <path d="M361.0287,290.3854 C361.0287,294.774 357.4174,298.3854 353.0287,298.3854 L353.0287,298.3854 C348.64,298.3854 345.0287,294.774 345.0287,290.3854 L345.0287,290.3854 C345.0287,285.9967 348.64,282.3854 353.0287,282.3854 L353.0287,282.3854 C357.4174,282.3854 361.0287,285.9967 361.0287,290.3854 "
                                      stroke-width="0.9999999" stroke-miterlimit="13.33333" stroke="#4682b4" fill="none"
                                      fill-rule="nonzero"/>
                                <g>
                                    <text>
                                        <tspan x="349.4179" y="290.3854" font-family="Arial" font-weight="normal"
                                               font-style="normal" font-size="9.999999" fill="#23527c">H
                                        </tspan>
                                    </text>
                                </g>
                                <path d="M360.7047,288.1315 L383.7325,281.3699 " stroke-width="2"
                                      stroke-miterlimit="13.33333" stroke="#666666" fill="none" fill-rule="evenodd"/>
                                <g transform="matrix(1.918986,-0.5634645,0.5634645,1.918986,376.8486,279.2223)">
                                    <g>
                                        <path d="M0,0 L4,2 L0,4 Z" fill="#666666" fill-rule="nonzero"/>
                                    </g>
                                </g>
                                <path d="M399.4084,279.1161 C399.4084,283.5047 395.7971,287.1161 391.4084,287.1161 L391.4084,287.1161 C387.0197,287.1161 383.4084,283.5047 383.4084,279.1161 L383.4084,279.1161 C383.4084,274.7274 387.0197,271.1161 391.4084,271.1161 L391.4084,271.1161 C395.7971,271.1161 399.4084,274.7274 399.4084,279.1161 "
                                      fill="#87cefa" fill-rule="nonzero"/>
                                <path d="M399.4084,279.1161 C399.4084,283.5047 395.7971,287.1161 391.4084,287.1161 L391.4084,287.1161 C387.0197,287.1161 383.4084,283.5047 383.4084,279.1161 L383.4084,279.1161 C383.4084,274.7274 387.0197,271.1161 391.4084,271.1161 L391.4084,271.1161 C395.7971,271.1161 399.4084,274.7274 399.4084,279.1161 "
                                      stroke-width="0.9999999" stroke-miterlimit="13.33333" stroke="#4682b4" fill="none"
                                      fill-rule="nonzero"/>
                                <g>
                                    <text>
                                        <tspan x="386.4084" y="279.1161" font-family="Arial" font-weight="normal"
                                               font-style="normal" font-size="9.999999" fill="#23527c">…
                                        </tspan>
                                    </text>
                                </g>
                                <path d="M399.0844,276.8622 L422.1122,270.1006 " stroke-width="2"
                                      stroke-miterlimit="13.33333" stroke="#666666" fill="none" fill-rule="evenodd"/>
                                <g transform="matrix(1.918986,-0.5634645,0.5634645,1.918986,415.2283,267.953)">
                                    <g>
                                        <path d="M0,0 L4,2 L0,4 Z" fill="#666666" fill-rule="nonzero"/>
                                    </g>
                                </g>
                                <path d="M437.7881,267.8467 C437.7881,272.2354 434.1768,275.8467 429.7881,275.8467 L429.7881,275.8467 C425.3995,275.8467 421.7881,272.2354 421.7881,267.8467 L421.7881,267.8467 C421.7881,263.4581 425.3995,259.8467 429.7881,259.8467 L429.7881,259.8467 C434.1768,259.8467 437.7881,263.4581 437.7881,267.8467 "
                                      fill="#87cefa" fill-rule="nonzero"/>
                                <path d="M437.7881,267.8467 C437.7881,272.2354 434.1768,275.8467 429.7881,275.8467 L429.7881,275.8467 C425.3995,275.8467 421.7881,272.2354 421.7881,267.8467 L421.7881,267.8467 C421.7881,263.4581 425.3995,259.8467 429.7881,259.8467 L429.7881,259.8467 C434.1768,259.8467 437.7881,263.4581 437.7881,267.8467 "
                                      stroke-width="0.9999999" stroke-miterlimit="13.33333" stroke="#4682b4" fill="none"
                                      fill-rule="nonzero"/>
                                <g>
                                    <text>
                                        <tspan x="426.7339" y="267.8467" font-family="Arial" font-weight="normal"
                                               font-style="normal" font-size="9.999999" fill="#23527c">T
                                        </tspan>
                                    </text>
                                </g>
                                <path d="M298.4732,328.6527 L298.4732,328.6527 L298.8232,331.2472 L299.1278,333.8474 L299.3869,336.4525 L299.6006,339.0617 L299.7687,341.6743 L299.8912,344.2894 L299.9681,346.9062 L299.9992,349.524 L299.9847,352.1419 L299.9245,354.7592 L299.8186,357.375 L299.667,359.9885 L299.4699,362.5991 L299.2273,365.2058 L298.9391,367.8079 L298.6057,370.4044 L298.4732,371.3472 L248.9821,364.2315 L248.9821,364.2315 L249.0704,363.603 L249.2928,361.8719 L249.4848,360.1372 L249.6466,358.3994 L249.778,356.659 L249.879,354.9166 L249.9496,353.1728 L249.9898,351.4279 L249.9995,349.6826 L249.9787,347.9375 L249.9275,346.1929 L249.8458,344.4496 L249.7337,342.7079 L249.5913,340.9684 L249.4185,339.2316 L249.2154,337.4981 L248.9821,335.7685 Z"
                                      fill="#e0e0e0" fill-rule="nonzero"/>
                                <path d="M298.4732,328.6527 L298.4732,328.6527 L298.8232,331.2472 L299.1278,333.8474 L299.3869,336.4525 L299.6006,339.0617 L299.7687,341.6743 L299.8912,344.2894 L299.9681,346.9062 L299.9992,349.524 L299.9847,352.1419 L299.9245,354.7592 L299.8186,357.375 L299.667,359.9885 L299.4699,362.5991 L299.2273,365.2058 L298.9391,367.8079 L298.6057,370.4044 L298.4732,371.3472 L248.9821,364.2315 L248.9821,364.2315 L249.0704,363.603 L249.2928,361.8719 L249.4848,360.1372 L249.6466,358.3994 L249.778,356.659 L249.879,354.9166 L249.9496,353.1728 L249.9898,351.4279 L249.9995,349.6826 L249.9787,347.9375 L249.9275,346.1929 L249.8458,344.4496 L249.7337,342.7079 L249.5913,340.9684 L249.4185,339.2316 L249.2154,337.4981 L248.9821,335.7685 Z"
                                      stroke-width="2" stroke-miterlimit="13.33333" stroke="#ffffff" fill="none"
                                      fill-rule="nonzero"/>
                                <g>
                                    <text>
                                        <tspan x="262.3261" y="350" font-family="Arial Unicode MS" font-weight="normal"
                                               font-style="normal" font-size="12" fill="#333333">￥
                                        </tspan>
                                        <tspan x="274.3261" y="350" font-family="Arial" font-weight="normal"
                                               font-style="normal" font-size="12" fill="#333333">98
                                        </tspan>
                                    </text>
                                </g>
                                <path d="M300,350 L353.6,350 " stroke-width="2" stroke-miterlimit="13.33333"
                                      stroke="#666666" fill="none" fill-rule="evenodd"/>
                                <g transform="matrix(2,0,0,2,347.6,346)">
                                    <g>
                                        <path d="M0,0 L4,2 L0,4 Z" fill="#666666" fill-rule="nonzero"/>
                                    </g>
                                </g>
                                <path d="M369.6,350 C369.6,354.3886 365.9886,358 361.6,358 L361.6,358 C357.2113,358 353.6,354.3886 353.6,350 L353.6,350 C353.6,345.6113 357.2113,342 361.6,342 L361.6,342 C365.9886,342 369.6,345.6113 369.6,350 "
                                      fill="#87cefa" fill-rule="nonzero"/>
                                <path d="M369.6,350 C369.6,354.3886 365.9886,358 361.6,358 L361.6,358 C357.2113,358 353.6,354.3886 353.6,350 L353.6,350 C353.6,345.6113 357.2113,342 361.6,342 L361.6,342 C365.9886,342 369.6,345.6113 369.6,350 "
                                      stroke-width="0.9999999" stroke-miterlimit="13.33333" stroke="#4682b4" fill="none"
                                      fill-rule="nonzero"/>
                                <g>
                                    <text>
                                        <tspan x="357.9892" y="350" font-family="Arial" font-weight="normal"
                                               font-style="normal" font-size="9.999999" fill="#23527c">H
                                        </tspan>
                                    </text>
                                </g>
                                <path d="M369.6,350 L393.6,350 " stroke-width="2" stroke-miterlimit="13.33333"
                                      stroke="#666666" fill="none" fill-rule="evenodd"/>
                                <g transform="matrix(2,0,0,2,387.6,346)">
                                    <g>
                                        <path d="M0,0 L4,2 L0,4 Z" fill="#666666" fill-rule="nonzero"/>
                                    </g>
                                </g>
                                <path d="M409.6,350 C409.6,354.3886 405.9886,358 401.6,358 L401.6,358 C397.2113,358 393.6,354.3886 393.6,350 L393.6,350 C393.6,345.6113 397.2113,342 401.6,342 L401.6,342 C405.9886,342 409.6,345.6113 409.6,350 "
                                      fill="#87cefa" fill-rule="nonzero"/>
                                <path d="M409.6,350 C409.6,354.3886 405.9886,358 401.6,358 L401.6,358 C397.2113,358 393.6,354.3886 393.6,350 L393.6,350 C393.6,345.6113 397.2113,342 401.6,342 L401.6,342 C405.9886,342 409.6,345.6113 409.6,350 "
                                      stroke-width="0.9999999" stroke-miterlimit="13.33333" stroke="#4682b4" fill="none"
                                      fill-rule="nonzero"/>
                                <g>
                                    <text>
                                        <tspan x="396.6" y="350" font-family="Arial" font-weight="normal"
                                               font-style="normal" font-size="9.999999" fill="#23527c">…
                                        </tspan>
                                    </text>
                                </g>
                                <path d="M409.6,350 L433.6,350 " stroke-width="2" stroke-miterlimit="13.33333"
                                      stroke="#666666" fill="none" fill-rule="evenodd"/>
                                <g transform="matrix(2,0,0,2,427.6,346)">
                                    <g>
                                        <path d="M0,0 L4,2 L0,4 Z" fill="#666666" fill-rule="nonzero"/>
                                    </g>
                                </g>
                                <path d="M449.5999,350 C449.5999,354.3886 445.9887,358 441.5999,358 L441.5999,358 C437.2113,358 433.6,354.3886 433.6,350 L433.6,350 C433.6,345.6113 437.2113,342 441.5999,342 L441.5999,342 C445.9887,342 449.5999,345.6113 449.5999,350 "
                                      fill="#87cefa" fill-rule="nonzero"/>
                                <path d="M449.5999,350 C449.5999,354.3886 445.9887,358 441.5999,358 L441.5999,358 C437.2113,358 433.6,354.3886 433.6,350 L433.6,350 C433.6,345.6113 437.2113,342 441.5999,342 L441.5999,342 C445.9887,342 449.5999,345.6113 449.5999,350 "
                                      stroke-width="0.9999999" stroke-miterlimit="13.33333" stroke="#4682b4" fill="none"
                                      fill-rule="nonzero"/>
                                <g>
                                    <text>
                                        <tspan x="438.5458" y="350" font-family="Arial" font-weight="normal"
                                               font-style="normal" font-size="9.999999" fill="#23527c">T
                                        </tspan>
                                    </text>
                                </g>
                                <path d="M298.4732,371.3472 L298.4732,371.3472 L298.078,373.9352 L297.6378,376.5158 L297.1525,379.0884 L296.6224,381.6521 L296.0477,384.2062 L295.4284,386.7499 L294.7649,389.2824 L294.0573,391.8029 L293.3058,394.3107 L292.5107,396.805 L291.6721,399.285 L290.7904,401.75 L289.8658,404.1992 L288.8986,406.632 L287.889,409.0475 L286.8375,411.445 L286.4448,412.3123 L240.9632,391.5415 L240.9632,391.5415 L241.225,390.9633 L241.926,389.365 L242.599,387.7546 L243.2438,386.1328 L243.8602,384.5 L244.4481,382.8567 L245.0071,381.2033 L245.5372,379.5405 L246.0382,377.8686 L246.5099,376.1882 L246.9523,374.4999 L247.3651,372.8042 L247.7483,371.1014 L248.1017,369.3922 L248.4252,367.6772 L248.7187,365.9568 L248.9821,364.2315 Z"
                                      fill="#e0e0e0" fill-rule="nonzero"/>
                                <path d="M298.4732,371.3472 L298.4732,371.3472 L298.078,373.9352 L297.6378,376.5158 L297.1525,379.0884 L296.6224,381.6521 L296.0477,384.2062 L295.4284,386.7499 L294.7649,389.2824 L294.0573,391.8029 L293.3058,394.3107 L292.5107,396.805 L291.6721,399.285 L290.7904,401.75 L289.8658,404.1992 L288.8986,406.632 L287.889,409.0475 L286.8375,411.445 L286.4448,412.3123 L240.9632,391.5415 L240.9632,391.5415 L241.225,390.9633 L241.926,389.365 L242.599,387.7546 L243.2438,386.1328 L243.8602,384.5 L244.4481,382.8567 L245.0071,381.2033 L245.5372,379.5405 L246.0382,377.8686 L246.5099,376.1882 L246.9523,374.4999 L247.3651,372.8042 L247.7483,371.1014 L248.1017,369.3922 L248.4252,367.6772 L248.7187,365.9568 L248.9821,364.2315 Z"
                                      stroke-width="2" stroke-miterlimit="13.33333" stroke="#ffffff" fill="none"
                                      fill-rule="nonzero"/>
                                <g>
                                    <text>
                                        <tspan x="257.2628" y="385.2166" font-family="Arial Unicode MS"
                                               font-weight="normal" font-style="normal" font-size="12" fill="#333333">￥
                                        </tspan>
                                        <tspan x="269.2628" y="385.2166" font-family="Arial" font-weight="normal"
                                               font-style="normal" font-size="12" fill="#333333">97
                                        </tspan>
                                    </text>
                                </g>
                                <path d="M293.924,392.2599 L345.3528,407.3607 " stroke-width="2"
                                      stroke-miterlimit="13.33333" stroke="#666666" fill="none" fill-rule="evenodd"/>
                                <g transform="matrix(1.918986,0.5634652,-0.5634652,1.918986,340.7227,401.8324)">
                                    <g>
                                        <path d="M0,0 L4,2 L0,4 Z" fill="#666666" fill-rule="nonzero"/>
                                    </g>
                                </g>
                                <path d="M361.0287,409.6146 C361.0287,414.0033 357.4174,417.6146 353.0287,417.6146 L353.0287,417.6146 C348.64,417.6146 345.0287,414.0033 345.0287,409.6146 L345.0287,409.6146 C345.0287,405.226 348.64,401.6146 353.0287,401.6146 L353.0287,401.6146 C357.4174,401.6146 361.0287,405.226 361.0287,409.6146 "
                                      fill="#87cefa" fill-rule="nonzero"/>
                                <path d="M361.0287,409.6146 C361.0287,414.0033 357.4174,417.6146 353.0287,417.6146 L353.0287,417.6146 C348.64,417.6146 345.0287,414.0033 345.0287,409.6146 L345.0287,409.6146 C345.0287,405.226 348.64,401.6146 353.0287,401.6146 L353.0287,401.6146 C357.4174,401.6146 361.0287,405.226 361.0287,409.6146 "
                                      stroke-width="0.9999999" stroke-miterlimit="13.33333" stroke="#4682b4" fill="none"
                                      fill-rule="nonzero"/>
                                <g>
                                    <text>
                                        <tspan x="349.4179" y="409.6146" font-family="Arial" font-weight="normal"
                                               font-style="normal" font-size="9.999999" fill="#23527c">H
                                        </tspan>
                                    </text>
                                </g>
                                <path d="M360.7047,411.8684 L383.7325,418.63 " stroke-width="2"
                                      stroke-miterlimit="13.33333" stroke="#666666" fill="none" fill-rule="evenodd"/>
                                <g transform="matrix(1.918987,0.5634632,-0.5634632,1.918987,379.1024,413.1017)">
                                    <g>
                                        <path d="M0,0 L4,2 L0,4 Z" fill="#666666" fill-rule="nonzero"/>
                                    </g>
                                </g>
                                <path d="M399.4084,420.8839 C399.4084,425.2726 395.7971,428.8839 391.4084,428.8839 L391.4084,428.8839 C387.0197,428.8839 383.4084,425.2726 383.4084,420.8839 L383.4084,420.8839 C383.4084,416.4952 387.0197,412.8839 391.4084,412.8839 L391.4084,412.8839 C395.7971,412.8839 399.4084,416.4952 399.4084,420.8839 "
                                      fill="#87cefa" fill-rule="nonzero"/>
                                <path d="M399.4084,420.8839 C399.4084,425.2726 395.7971,428.8839 391.4084,428.8839 L391.4084,428.8839 C387.0197,428.8839 383.4084,425.2726 383.4084,420.8839 L383.4084,420.8839 C383.4084,416.4952 387.0197,412.8839 391.4084,412.8839 L391.4084,412.8839 C395.7971,412.8839 399.4084,416.4952 399.4084,420.8839 "
                                      stroke-width="0.9999999" stroke-miterlimit="13.33333" stroke="#4682b4" fill="none"
                                      fill-rule="nonzero"/>
                                <g>
                                    <text>
                                        <tspan x="386.4084" y="420.8839" font-family="Arial" font-weight="normal"
                                               font-style="normal" font-size="9.999999" fill="#23527c">…
                                        </tspan>
                                    </text>
                                </g>
                                <path d="M399.0844,423.1377 L422.1122,429.8993 " stroke-width="2"
                                      stroke-miterlimit="13.33333" stroke="#666666" fill="none" fill-rule="evenodd"/>
                                <g transform="matrix(1.918986,0.5634663,-0.5634663,1.918986,417.4822,424.371)">
                                    <g>
                                        <path d="M0,0 L4,2 L0,4 Z" fill="#666666" fill-rule="nonzero"/>
                                    </g>
                                </g>
                                <path d="M437.7881,432.1532 C437.7881,436.5418 434.1768,440.1532 429.7881,440.1532 L429.7881,440.1532 C425.3995,440.1532 421.7881,436.5418 421.7881,432.1532 L421.7881,432.1532 C421.7881,427.7645 425.3995,424.1532 429.7881,424.1532 L429.7881,424.1532 C434.1768,424.1532 437.7881,427.7645 437.7881,432.1532 "
                                      fill="#87cefa" fill-rule="nonzero"/>
                                <path d="M437.7881,432.1532 C437.7881,436.5418 434.1768,440.1532 429.7881,440.1532 L429.7881,440.1532 C425.3995,440.1532 421.7881,436.5418 421.7881,432.1532 L421.7881,432.1532 C421.7881,427.7645 425.3995,424.1532 429.7881,424.1532 L429.7881,424.1532 C434.1768,424.1532 437.7881,427.7645 437.7881,432.1532 "
                                      stroke-width="0.9999999" stroke-miterlimit="13.33333" stroke="#4682b4" fill="none"
                                      fill-rule="nonzero"/>
                                <g>
                                    <text>
                                        <tspan x="426.7339" y="432.1532" font-family="Arial" font-weight="normal"
                                               font-style="normal" font-size="9.999999" fill="#23527c">T
                                        </tspan>
                                    </text>
                                </g>
                                <path d="M286.4448,412.3123 L286.4448,412.3123 L285.3365,414.6841 L284.187,417.0361 L282.9966,419.3678 L281.7657,421.6783 L280.4947,423.9671 L279.1839,426.2333 L277.8338,428.4762 L276.4447,430.6953 L275.0171,432.8897 L273.5515,435.0589 L272.0482,437.2023 L270.5077,439.3191 L268.9305,441.4085 L267.317,443.4702 L265.6679,445.5034 L263.9836,447.5076 L263.3624,448.229 L225.5749,415.4861 L225.5749,415.4861 L225.989,415.0051 L227.1119,413.669 L228.2114,412.3135 L229.287,410.9391 L230.3384,409.546 L231.3654,408.1349 L232.3676,406.706 L233.3447,405.2598 L234.2965,403.7969 L235.2225,402.3175 L236.1226,400.8221 L236.9965,399.3114 L237.8438,397.7856 L238.6644,396.2452 L239.458,394.6908 L240.2243,393.1227 L240.9632,391.5415 Z"
                                      fill="#e0e0e0" fill-rule="nonzero"/>
                                <path d="M286.4448,412.3123 L286.4448,412.3123 L285.3365,414.6841 L284.187,417.0361 L282.9966,419.3678 L281.7657,421.6783 L280.4947,423.9671 L279.1839,426.2333 L277.8338,428.4762 L276.4447,430.6953 L275.0171,432.8897 L273.5515,435.0589 L272.0482,437.2023 L270.5077,439.3191 L268.9305,441.4085 L267.317,443.4702 L265.6679,445.5034 L263.9836,447.5076 L263.3624,448.229 L225.5749,415.4861 L225.5749,415.4861 L225.989,415.0051 L227.1119,413.669 L228.2114,412.3135 L229.287,410.9391 L230.3384,409.546 L231.3654,408.1349 L232.3676,406.706 L233.3447,405.2598 L234.2965,403.7969 L235.2225,402.3175 L236.1226,400.8221 L236.9965,399.3114 L237.8438,397.7856 L238.6644,396.2452 L239.458,394.6908 L240.2243,393.1227 L240.9632,391.5415 Z"
                                      stroke-width="2" stroke-miterlimit="13.33333" stroke="#ffffff" fill="none"
                                      fill-rule="nonzero"/>
                                <g>
                                    <text>
                                        <tspan x="242.4828" y="417.5801" font-family="Arial Unicode MS"
                                               font-weight="normal" font-style="normal" font-size="12" fill="#333333">￥
                                        </tspan>
                                        <tspan x="254.4828" y="417.5801" font-family="Arial" font-weight="normal"
                                               font-style="normal" font-size="12" fill="#333333">96
                                        </tspan>
                                    </text>
                                </g>
                                <path d="M276.188,431.0961 L321.2792,460.0744 " stroke-width="2"
                                      stroke-miterlimit="13.33333" stroke="#666666" fill="none" fill-rule="evenodd"/>
                                <g transform="matrix(1.682507,1.081282,-1.081282,1.682507,318.3943,453.4656)">
                                    <g>
                                        <path d="M0,0 L4,2 L0,4 Z" fill="#666666" fill-rule="nonzero"/>
                                    </g>
                                </g>
                                <path d="M336.0092,464.3995 C336.0092,468.7882 332.3979,472.3995 328.0092,472.3995 L328.0092,472.3995 C323.6206,472.3995 320.0092,468.7882 320.0092,464.3995 L320.0092,464.3995 C320.0092,460.0109 323.6206,456.3995 328.0092,456.3995 L328.0092,456.3995 C332.3979,456.3995 336.0092,460.0109 336.0092,464.3995 "
                                      fill="#87cefa" fill-rule="nonzero"/>
                                <path d="M336.0092,464.3995 C336.0092,468.7882 332.3979,472.3995 328.0092,472.3995 L328.0092,472.3995 C323.6206,472.3995 320.0092,468.7882 320.0092,464.3995 L320.0092,464.3995 C320.0092,460.0109 323.6206,456.3995 328.0092,456.3995 L328.0092,456.3995 C332.3979,456.3995 336.0092,460.0109 336.0092,464.3995 "
                                      stroke-width="0.9999999" stroke-miterlimit="13.33333" stroke="#4682b4" fill="none"
                                      fill-rule="nonzero"/>
                                <g>
                                    <text>
                                        <tspan x="324.3984" y="464.3995" font-family="Arial" font-weight="normal"
                                               font-style="normal" font-size="9.999999" fill="#23527c">H
                                        </tspan>
                                    </text>
                                </g>
                                <path d="M334.7392,468.7247 L354.9294,481.7001 " stroke-width="2"
                                      stroke-miterlimit="13.33333" stroke="#666666" fill="none" fill-rule="evenodd"/>
                                <g transform="matrix(1.682507,1.081282,-1.081282,1.682507,352.0443,475.0912)">
                                    <g>
                                        <path d="M0,0 L4,2 L0,4 Z" fill="#666666" fill-rule="nonzero"/>
                                    </g>
                                </g>
                                <path d="M369.6593,486.0252 C369.6593,490.4138 366.0481,494.0252 361.6593,494.0252 L361.6593,494.0252 C357.2707,494.0252 353.6593,490.4138 353.6593,486.0252 L353.6593,486.0252 C353.6593,481.6365 357.2707,478.0252 361.6593,478.0252 L361.6593,478.0252 C366.0481,478.0252 369.6593,481.6365 369.6593,486.0252 "
                                      fill="#87cefa" fill-rule="nonzero"/>
                                <path d="M369.6593,486.0252 C369.6593,490.4138 366.0481,494.0252 361.6593,494.0252 L361.6593,494.0252 C357.2707,494.0252 353.6593,490.4138 353.6593,486.0252 L353.6593,486.0252 C353.6593,481.6365 357.2707,478.0252 361.6593,478.0252 L361.6593,478.0252 C366.0481,478.0252 369.6593,481.6365 369.6593,486.0252 "
                                      stroke-width="0.9999999" stroke-miterlimit="13.33333" stroke="#4682b4" fill="none"
                                      fill-rule="nonzero"/>
                                <g>
                                    <text>
                                        <tspan x="356.6593" y="486.0252" font-family="Arial" font-weight="normal"
                                               font-style="normal" font-size="9.999999" fill="#23527c">…
                                        </tspan>
                                    </text>
                                </g>
                                <path d="M368.3894,490.3503 L388.5795,503.3257 " stroke-width="2"
                                      stroke-miterlimit="13.33333" stroke="#666666" fill="none" fill-rule="evenodd"/>
                                <g transform="matrix(1.682508,1.081281,-1.081281,1.682508,385.6945,496.7168)">
                                    <g>
                                        <path d="M0,0 L4,2 L0,4 Z" fill="#666666" fill-rule="nonzero"/>
                                    </g>
                                </g>
                                <path d="M403.3095,507.6508 C403.3095,512.0395 399.6982,515.6508 395.3095,515.6508 L395.3095,515.6508 C390.9209,515.6508 387.3095,512.0395 387.3095,507.6508 L387.3095,507.6508 C387.3095,503.2622 390.9209,499.6508 395.3095,499.6508 L395.3095,499.6508 C399.6982,499.6508 403.3095,503.2622 403.3095,507.6508 "
                                      fill="#87cefa" fill-rule="nonzero"/>
                                <path d="M403.3095,507.6508 C403.3095,512.0395 399.6982,515.6508 395.3095,515.6508 L395.3095,515.6508 C390.9209,515.6508 387.3095,512.0395 387.3095,507.6508 L387.3095,507.6508 C387.3095,503.2622 390.9209,499.6508 395.3095,499.6508 L395.3095,499.6508 C399.6982,499.6508 403.3095,503.2622 403.3095,507.6508 "
                                      stroke-width="0.9999999" stroke-miterlimit="13.33333" stroke="#4682b4" fill="none"
                                      fill-rule="nonzero"/>
                                <g>
                                    <text>
                                        <tspan x="392.2553" y="507.6508" font-family="Arial" font-weight="normal"
                                               font-style="normal" font-size="9.999999" fill="#23527c">T
                                        </tspan>
                                    </text>
                                </g>
                                <path d="M263.3624,448.2291 L263.3624,448.2291 L261.6308,450.1926 L259.8652,452.1255 L258.0661,454.0273 L256.2341,455.8976 L254.3698,457.7355 L252.4736,459.5406 L250.5463,461.3123 L248.5883,463.0501 L246.6003,464.7535 L244.5829,466.4219 L242.5366,468.0548 L240.4622,469.6519 L238.3602,471.2125 L236.2313,472.7361 L234.0761,474.2224 L231.8953,475.6708 L231.0961,476.188 L204.0641,434.1253 L204.0641,434.1253 L204.5969,433.7805 L206.0508,432.8149 L207.4875,431.8241 L208.9068,430.8083 L210.3082,429.7679 L211.6911,428.7032 L213.0553,427.6147 L214.4002,426.5023 L215.7255,425.3667 L217.0309,424.2082 L218.3158,423.0271 L219.5798,421.8237 L220.8228,420.5984 L222.0441,419.3517 L223.2435,418.0837 L224.4205,416.7951 L225.5749,415.4861 Z"
                                      fill="#e0e0e0" fill-rule="nonzero"/>
                                <path d="M263.3624,448.2291 L263.3624,448.2291 L261.6308,450.1926 L259.8652,452.1255 L258.0661,454.0273 L256.2341,455.8976 L254.3698,457.7355 L252.4736,459.5406 L250.5463,461.3123 L248.5883,463.0501 L246.6003,464.7535 L244.5829,466.4219 L242.5366,468.0548 L240.4622,469.6519 L238.3602,471.2125 L236.2313,472.7361 L234.0761,474.2224 L231.8953,475.6708 L231.0961,476.188 L204.0641,434.1253 L204.0641,434.1253 L204.5969,433.7805 L206.0508,432.8149 L207.4875,431.8241 L208.9068,430.8083 L210.3082,429.7679 L211.6911,428.7032 L213.0553,427.6147 L214.4002,426.5023 L215.7255,425.3667 L217.0309,424.2082 L218.3158,423.0271 L219.5798,421.8237 L220.8228,420.5984 L222.0441,419.3517 L223.2435,418.0837 L224.4205,416.7951 L225.5749,415.4861 Z"
                                      stroke-width="2" stroke-miterlimit="13.33333" stroke="#ffffff" fill="none"
                                      fill-rule="nonzero"/>
                                <g>
                                    <text>
                                        <tspan x="219.1837" y="444.4687" font-family="Arial Unicode MS"
                                               font-weight="normal" font-style="normal" font-size="12" fill="#333333">￥
                                        </tspan>
                                        <tspan x="231.1837" y="444.4687" font-family="Arial" font-weight="normal"
                                               font-style="normal" font-size="12" fill="#333333">95
                                        </tspan>
                                    </text>
                                </g>
                                <path d="M248.2291,463.3624 L283.3296,503.8706 " stroke-width="2"
                                      stroke-miterlimit="13.33333" stroke="#666666" fill="none" fill-rule="evenodd"/>
                                <g transform="matrix(1.309722,1.511499,-1.511499,1.309722,282.4235,496.7166)">
                                    <g>
                                        <path d="M0,0 L4,2 L0,4 Z" fill="#666666" fill-rule="nonzero"/>
                                    </g>
                                </g>
                                <path d="M296.5685,509.9166 C296.5685,514.3052 292.9572,517.9166 288.5685,517.9166 L288.5685,517.9166 C284.1798,517.9166 280.5685,514.3052 280.5685,509.9166 L280.5685,509.9166 C280.5685,505.528 284.1798,501.9166 288.5685,501.9166 L288.5685,501.9166 C292.9572,501.9166 296.5685,505.528 296.5685,509.9166 "
                                      fill="#87cefa" fill-rule="nonzero"/>
                                <path d="M296.5685,509.9166 C296.5685,514.3052 292.9572,517.9166 288.5685,517.9166 L288.5685,517.9166 C284.1798,517.9166 280.5685,514.3052 280.5685,509.9166 L280.5685,509.9166 C280.5685,505.528 284.1798,501.9166 288.5685,501.9166 L288.5685,501.9166 C292.9572,501.9166 296.5685,505.528 296.5685,509.9166 "
                                      stroke-width="0.9999999" stroke-miterlimit="13.33333" stroke="#4682b4" fill="none"
                                      fill-rule="nonzero"/>
                                <g>
                                    <text>
                                        <tspan x="284.9577" y="509.9166" font-family="Arial" font-weight="normal"
                                               font-style="normal" font-size="9.999999" fill="#23527c">H
                                        </tspan>
                                    </text>
                                </g>
                                <path d="M293.8074,515.9626 L309.524,534.1005 " stroke-width="2"
                                      stroke-miterlimit="13.33333" stroke="#666666" fill="none" fill-rule="evenodd"/>
                                <g transform="matrix(1.309722,1.511499,-1.511499,1.309722,308.6179,526.9466)">
                                    <g>
                                        <path d="M0,0 L4,2 L0,4 Z" fill="#666666" fill-rule="nonzero"/>
                                    </g>
                                </g>
                                <path d="M322.7629,540.1465 C322.7629,544.5352 319.1516,548.1465 314.7629,548.1465 L314.7629,548.1465 C310.3742,548.1465 306.7629,544.5352 306.7629,540.1465 L306.7629,540.1465 C306.7629,535.7579 310.3742,532.1465 314.7629,532.1465 L314.7629,532.1465 C319.1516,532.1465 322.7629,535.7579 322.7629,540.1465 "
                                      fill="#87cefa" fill-rule="nonzero"/>
                                <path d="M322.7629,540.1465 C322.7629,544.5352 319.1516,548.1465 314.7629,548.1465 L314.7629,548.1465 C310.3742,548.1465 306.7629,544.5352 306.7629,540.1465 L306.7629,540.1465 C306.7629,535.7579 310.3742,532.1465 314.7629,532.1465 L314.7629,532.1465 C319.1516,532.1465 322.7629,535.7579 322.7629,540.1465 "
                                      stroke-width="0.9999999" stroke-miterlimit="13.33333" stroke="#4682b4" fill="none"
                                      fill-rule="nonzero"/>
                                <g>
                                    <text>
                                        <tspan x="309.7629" y="540.1465" font-family="Arial" font-weight="normal"
                                               font-style="normal" font-size="9.999999" fill="#23527c">…
                                        </tspan>
                                    </text>
                                </g>
                                <path d="M320.0019,546.1926 L335.7185,564.3305 " stroke-width="2"
                                      stroke-miterlimit="13.33333" stroke="#666666" fill="none" fill-rule="evenodd"/>
                                <g transform="matrix(1.309722,1.511499,-1.511499,1.309722,334.8123,557.1766)">
                                    <g>
                                        <path d="M0,0 L4,2 L0,4 Z" fill="#666666" fill-rule="nonzero"/>
                                    </g>
                                </g>
                                <path d="M348.9574,570.3765 C348.9574,574.7652 345.346,578.3765 340.9574,578.3765 L340.9574,578.3765 C336.5687,578.3765 332.9574,574.7652 332.9574,570.3765 L332.9574,570.3765 C332.9574,565.9879 336.5687,562.3765 340.9574,562.3765 L340.9574,562.3765 C345.346,562.3765 348.9574,565.9879 348.9574,570.3765 "
                                      fill="#87cefa" fill-rule="nonzero"/>
                                <path d="M348.9574,570.3765 C348.9574,574.7652 345.346,578.3765 340.9574,578.3765 L340.9574,578.3765 C336.5687,578.3765 332.9574,574.7652 332.9574,570.3765 L332.9574,570.3765 C332.9574,565.9879 336.5687,562.3765 340.9574,562.3765 L340.9574,562.3765 C345.346,562.3765 348.9574,565.9879 348.9574,570.3765 "
                                      stroke-width="0.9999999" stroke-miterlimit="13.33333" stroke="#4682b4" fill="none"
                                      fill-rule="nonzero"/>
                                <g>
                                    <text>
                                        <tspan x="337.9032" y="570.3765" font-family="Arial" font-weight="normal"
                                               font-style="normal" font-size="9.999999" fill="#23527c">T
                                        </tspan>
                                    </text>
                                </g>
                                <path d="M231.0961,476.188 L231.0961,476.188 L228.8815,477.5841 L226.6428,478.9413 L224.3808,480.2593 L222.0961,481.5376 L219.7895,482.7758 L217.4616,483.9735 L215.1132,485.1305 L212.7449,486.2464 L210.3575,487.3206 L207.9518,488.3531 L205.5283,489.3434 L203.088,490.2913 L200.6315,491.1964 L198.1596,492.0586 L195.673,492.8774 L193.1725,493.6527 L192.2599,493.9239 L178.1732,445.9492 L178.1732,445.9492 L178.7816,445.7685 L180.4486,445.2516 L182.1064,444.7057 L183.7543,444.131 L185.392,443.5276 L187.0189,442.8956 L188.6345,442.2354 L190.2383,441.5471 L191.83,440.8309 L193.4088,440.0871 L194.9744,439.3157 L196.5264,438.5172 L198.0641,437.6918 L199.5872,436.8395 L201.0952,435.9609 L202.5876,435.0561 L204.0641,434.1253 Z"
                                      fill="#e0e0e0" fill-rule="nonzero"/>
                                <path d="M231.0961,476.188 L231.0961,476.188 L228.8815,477.5841 L226.6428,478.9413 L224.3808,480.2593 L222.0961,481.5376 L219.7895,482.7758 L217.4616,483.9735 L215.1132,485.1305 L212.7449,486.2464 L210.3575,487.3206 L207.9518,488.3531 L205.5283,489.3434 L203.088,490.2913 L200.6315,491.1964 L198.1596,492.0586 L195.673,492.8774 L193.1725,493.6527 L192.2599,493.9239 L178.1732,445.9492 L178.1732,445.9492 L178.7816,445.7685 L180.4486,445.2516 L182.1064,444.7057 L183.7543,444.131 L185.392,443.5276 L187.0189,442.8956 L188.6345,442.2354 L190.2383,441.5471 L191.83,440.8309 L193.4088,440.0871 L194.9744,439.3157 L196.5264,438.5172 L198.0641,437.6918 L199.5872,436.8395 L201.0952,435.9609 L202.5876,435.0561 L204.0641,434.1253 Z"
                                      stroke-width="2" stroke-miterlimit="13.33333" stroke="#ffffff" fill="none"
                                      fill-rule="nonzero"/>
                                <g>
                                    <text>
                                        <tspan x="189.2531" y="463.7039" font-family="Arial Unicode MS"
                                               font-weight="normal" font-style="normal" font-size="12" fill="#333333">￥
                                        </tspan>
                                        <tspan x="201.2531" y="463.7039" font-family="Arial" font-weight="normal"
                                               font-style="normal" font-size="12" fill="#333333">94
                                        </tspan>
                                    </text>
                                </g>
                                <path d="M212.3123,486.4447 L234.5785,535.201 " stroke-width="2"
                                      stroke-miterlimit="13.33333" stroke="#666666" fill="none" fill-rule="evenodd"/>
                                <g transform="matrix(0.8308293,1.819264,-1.819264,0.8308293,235.7245,528.0816)">
                                    <g>
                                        <path d="M0,0 L4,2 L0,4 Z" fill="#666666" fill-rule="nonzero"/>
                                    </g>
                                </g>
                                <path d="M245.9018,542.4781 C245.9018,546.8668 242.2905,550.4781 237.9018,550.4781 L237.9018,550.4781 C233.5131,550.4781 229.9018,546.8668 229.9018,542.4781 L229.9018,542.4781 C229.9018,538.0894 233.5131,534.4781 237.9018,534.4781 L237.9018,534.4781 C242.2905,534.4781 245.9018,538.0894 245.9018,542.4781 "
                                      fill="#87cefa" fill-rule="nonzero"/>
                                <path d="M245.9018,542.4781 C245.9018,546.8668 242.2905,550.4781 237.9018,550.4781 L237.9018,550.4781 C233.5131,550.4781 229.9018,546.8668 229.9018,542.4781 L229.9018,542.4781 C229.9018,538.0894 233.5131,534.4781 237.9018,534.4781 L237.9018,534.4781 C242.2905,534.4781 245.9018,538.0894 245.9018,542.4781 "
                                      stroke-width="0.9999999" stroke-miterlimit="13.33333" stroke="#4682b4" fill="none"
                                      fill-rule="nonzero"/>
                                <g>
                                    <text>
                                        <tspan x="234.291" y="542.4781" font-family="Arial" font-weight="normal"
                                               font-style="normal" font-size="9.999999" fill="#23527c">H
                                        </tspan>
                                    </text>
                                </g>
                                <path d="M241.2251,549.7551 L251.1951,571.5863 " stroke-width="2"
                                      stroke-miterlimit="13.33333" stroke="#666666" fill="none" fill-rule="evenodd"/>
                                <g transform="matrix(0.8308291,1.819265,-1.819265,0.8308291,252.3411,564.4669)">
                                    <g>
                                        <path d="M0,0 L4,2 L0,4 Z" fill="#666666" fill-rule="nonzero"/>
                                    </g>
                                </g>
                                <path d="M262.5184,578.8633 C262.5184,583.252 258.9071,586.8633 254.5184,586.8633 L254.5184,586.8633 C250.1297,586.8633 246.5184,583.252 246.5184,578.8633 L246.5184,578.8633 C246.5184,574.4747 250.1297,570.8633 254.5184,570.8633 L254.5184,570.8633 C258.9071,570.8633 262.5184,574.4747 262.5184,578.8633 "
                                      fill="#87cefa" fill-rule="nonzero"/>
                                <path d="M262.5184,578.8633 C262.5184,583.252 258.9071,586.8633 254.5184,586.8633 L254.5184,586.8633 C250.1297,586.8633 246.5184,583.252 246.5184,578.8633 L246.5184,578.8633 C246.5184,574.4747 250.1297,570.8633 254.5184,570.8633 L254.5184,570.8633 C258.9071,570.8633 262.5184,574.4747 262.5184,578.8633 "
                                      stroke-width="0.9999999" stroke-miterlimit="13.33333" stroke="#4682b4" fill="none"
                                      fill-rule="nonzero"/>
                                <g>
                                    <text>
                                        <tspan x="249.5184" y="578.8633" font-family="Arial" font-weight="normal"
                                               font-style="normal" font-size="9.999999" fill="#23527c">…
                                        </tspan>
                                    </text>
                                </g>
                                <path d="M257.8417,586.1404 L267.8117,607.9716 " stroke-width="2"
                                      stroke-miterlimit="13.33333" stroke="#666666" fill="none" fill-rule="evenodd"/>
                                <g transform="matrix(0.8308306,1.819264,-1.819264,0.8308306,268.9577,600.8521)">
                                    <g>
                                        <path d="M0,0 L4,2 L0,4 Z" fill="#666666" fill-rule="nonzero"/>
                                    </g>
                                </g>
                                <path d="M279.135,615.2487 C279.135,619.6373 275.5237,623.2487 271.135,623.2487 L271.135,623.2487 C266.7463,623.2487 263.135,619.6373 263.135,615.2487 L263.135,615.2487 C263.135,610.8599 266.7463,607.2487 271.135,607.2487 L271.135,607.2487 C275.5237,607.2487 279.135,610.8599 279.135,615.2487 "
                                      fill="#87cefa" fill-rule="nonzero"/>
                                <path d="M279.135,615.2487 C279.135,619.6373 275.5237,623.2487 271.135,623.2487 L271.135,623.2487 C266.7463,623.2487 263.135,619.6373 263.135,615.2487 L263.135,615.2487 C263.135,610.8599 266.7463,607.2487 271.135,607.2487 L271.135,607.2487 C275.5237,607.2487 279.135,610.8599 279.135,615.2487 "
                                      stroke-width="0.9999999" stroke-miterlimit="13.33333" stroke="#4682b4" fill="none"
                                      fill-rule="nonzero"/>
                                <g>
                                    <text>
                                        <tspan x="268.0808" y="615.2487" font-family="Arial" font-weight="normal"
                                               font-style="normal" font-size="9.999999" fill="#23527c">T
                                        </tspan>
                                    </text>
                                </g>
                            </g>
                        </g>
                    </g>
                </g>
            </g>
        </g>
    </g>
    <rect x="0" y="0" width="816" height="1056" style="fill: none; stroke: #000000; stroke-width: 1.333333"/>
</svg>